<?xml version="1.0" encoding="UTF-8"?>
<svg width="259px" height="259px" viewBox="0 0 259 259" version="1.1" xmlns="http://www.w3.org/2000/svg" xmlns:xlink="http://www.w3.org/1999/xlink">
    <title>info.circle.fill.dark</title>
    <g id="info.circle.fill.dark" stroke="none" stroke-width="1" fill="none" fill-rule="evenodd">
        <path d="M129.5,259 C200.344118,259 259,200.217157 259,129.5 C259,58.6558824 200.217157,0 129.373039,0 C58.6558824,0 0,58.6558824 0,129.5 C0,200.217157 58.7828431,259 129.5,259 Z M128.357353,84.4289216 C118.835294,84.4289216 111.217647,76.8112745 111.217647,67.1622549 C111.217647,57.5132353 118.835294,49.8955882 128.357353,49.8955882 C137.879412,49.8955882 145.370098,57.5132353 145.370098,67.1622549 C145.370098,76.8112745 137.879412,84.4289216 128.357353,84.4289216 Z M106.647059,203.010294 C101.187745,203.010294 96.9980392,199.07451 96.9980392,193.615196 C96.9980392,188.536765 101.187745,184.347059 106.647059,184.347059 L122.771078,184.347059 L122.771078,124.67549 L108.805392,124.67549 C103.473039,124.67549 99.2833333,120.739706 99.2833333,115.280392 C99.2833333,110.201961 103.473039,106.012255 108.805392,106.012255 L133.435784,106.012255 C140.164706,106.012255 143.719608,110.836765 143.719608,117.946569 L143.719608,184.347059 L159.843627,184.347059 C165.302941,184.347059 169.492647,188.536765 169.492647,193.615196 C169.492647,199.07451 165.302941,203.010294 159.843627,203.010294 L106.647059,203.010294 Z" id="Shape" fill="#FFFFFF" fill-rule="nonzero"></path>
    </g>
</svg>