<?xml version="1.0" encoding="UTF-8"?>
<svg width="259px" height="259px" viewBox="0 0 259 259" version="1.1" xmlns="http://www.w3.org/2000/svg" xmlns:xlink="http://www.w3.org/1999/xlink">
    <title>gearshape.circle.fill.dark</title>
    <g id="gearshape.circle.fill.dark" stroke="none" stroke-width="1" fill="none" fill-rule="evenodd">
        <path d="M129.5,259 C200.344118,259 259,200.344118 259,129.5 C259,58.7828431 200.217157,0 129.373039,0 C58.6558824,0 0,58.7828431 0,129.5 C0,200.344118 58.7828431,259 129.5,259 Z M122.591549,206 C118.915493,206 116.126761,203.71831 115.366197,199.915493 L111.43662,183.816901 C108.647887,182.802817 105.732394,181.661972 103.450704,180.521127 L89.2535211,189.140845 C86.3380282,191.295775 82.6619718,191.042254 79.8732394,188.380282 L70.6197183,179 C67.8309859,176.338028 67.4507042,172.535211 69.7323944,169.366197 L78.2253521,155.295775 C76.9577465,152.887324 75.943662,150.225352 75.056338,147.43662 L58.8309859,143.633803 C55.028169,142.746479 53,140.084507 53,136.28169 L53,122.971831 C53,119.295775 55.028169,116.507042 58.8309859,115.746479 L74.9295775,111.816901 C75.943662,108.774648 77.2112676,105.985915 78.0985915,103.830986 L69.4788732,89.6338028 C67.4507042,86.5915493 67.5774648,83.0422535 70.3661972,80.1267606 L79.8732394,70.8732394 C82.6619718,68.2112676 85.8309859,67.8309859 89.1267606,69.7323944 L103.323944,78.4788732 C105.732394,77.2112676 108.647887,76.0704225 111.43662,75.056338 L115.366197,58.9577465 C116.126761,55.1549296 118.915493,53 122.591549,53 L136.28169,53 C139.957746,53 142.746479,55.1549296 143.507042,58.9577465 L147.43662,75.1830986 C150.352113,76.1971831 153.140845,77.4647887 155.422535,78.4788732 L169.746479,69.7323944 C173.169014,67.8309859 176.338028,68.3380282 179,70.8732394 L188.507042,80.1267606 C191.295775,83.0422535 191.422535,86.5915493 189.394366,89.6338028 L180.774648,103.830986 C181.661972,105.985915 182.929577,108.774648 183.943662,111.816901 L200.042254,115.746479 C203.84507,116.507042 206,119.295775 206,122.971831 L206,136.28169 C206,140.084507 203.84507,142.746479 200.042254,143.633803 L183.816901,147.43662 C182.929577,150.225352 181.915493,152.887324 180.647887,155.295775 L189.140845,169.366197 C191.422535,172.535211 191.042254,176.338028 188.253521,179 L179,188.380282 C176.338028,191.042254 172.661972,191.295775 169.619718,189.140845 L155.422535,180.521127 C153.140845,181.661972 150.225352,182.802817 147.43662,183.816901 L143.507042,199.915493 C142.746479,203.71831 139.957746,206 136.28169,206 L122.591549,206 Z M130,156 C144.27451,156 156,144.117936 156,129.808354 C156,115.626536 144.27451,104 130,104 C115.72549,104 104,115.626536 104,129.808354 C104,144.117936 115.72549,156 130,156 Z" id="Shape" fill="#FFFFFF" fill-rule="nonzero"></path>
    </g>
</svg>